<mxfile host="65bd71144e">
    <diagram id="3FhXxDM8kPHd67iSZDxZ" name="Page-1">
        <mxGraphModel dx="1386" dy="802" grid="1" gridSize="10" guides="1" tooltips="1" connect="1" arrows="1" fold="1" page="1" pageScale="1" pageWidth="1200" pageHeight="300" math="0" shadow="0">
            <root>
                <mxCell id="0"/>
                <mxCell id="1" parent="0"/>
                <mxCell id="8vFuzAXdGaLlHIgOlRP7-5" style="edgeStyle=orthogonalEdgeStyle;rounded=0;orthogonalLoop=1;jettySize=auto;html=1;entryX=0;entryY=0.5;entryDx=0;entryDy=0;" parent="1" source="8vFuzAXdGaLlHIgOlRP7-1" target="8vFuzAXdGaLlHIgOlRP7-3" edge="1">
                    <mxGeometry relative="1" as="geometry"/>
                </mxCell>
                <mxCell id="8vFuzAXdGaLlHIgOlRP7-1" value="Error occurs" style="ellipse;whiteSpace=wrap;html=1;" parent="1" vertex="1">
                    <mxGeometry x="63" y="120" width="120" height="80" as="geometry"/>
                </mxCell>
                <mxCell id="8vFuzAXdGaLlHIgOlRP7-6" style="edgeStyle=orthogonalEdgeStyle;rounded=0;orthogonalLoop=1;jettySize=auto;html=1;entryX=0;entryY=0.5;entryDx=0;entryDy=0;" parent="1" source="8vFuzAXdGaLlHIgOlRP7-3" target="8vFuzAXdGaLlHIgOlRP7-4" edge="1">
                    <mxGeometry relative="1" as="geometry"/>
                </mxCell>
                <mxCell id="8vFuzAXdGaLlHIgOlRP7-14" value="Yes" style="edgeLabel;html=1;align=center;verticalAlign=middle;resizable=0;points=[];" parent="8vFuzAXdGaLlHIgOlRP7-6" vertex="1" connectable="0">
                    <mxGeometry x="-0.35" y="3" relative="1" as="geometry">
                        <mxPoint x="2" y="-5" as="offset"/>
                    </mxGeometry>
                </mxCell>
                <mxCell id="8" style="edgeStyle=none;html=1;entryX=0.5;entryY=1;entryDx=0;entryDy=0;" edge="1" parent="1" source="8vFuzAXdGaLlHIgOlRP7-3" target="8vFuzAXdGaLlHIgOlRP7-17">
                    <mxGeometry relative="1" as="geometry">
                        <Array as="points">
                            <mxPoint x="263" y="230"/>
                            <mxPoint x="548" y="230"/>
                        </Array>
                    </mxGeometry>
                </mxCell>
                <mxCell id="17" value="No" style="edgeLabel;html=1;align=center;verticalAlign=middle;resizable=0;points=[];" vertex="1" connectable="0" parent="8">
                    <mxGeometry x="-0.7159" relative="1" as="geometry">
                        <mxPoint x="38" y="-10" as="offset"/>
                    </mxGeometry>
                </mxCell>
                <mxCell id="8vFuzAXdGaLlHIgOlRP7-3" value="Log&lt;br&gt;needed?" style="rhombus;whiteSpace=wrap;html=1;" parent="1" vertex="1">
                    <mxGeometry x="223" y="120" width="80" height="80" as="geometry"/>
                </mxCell>
                <mxCell id="6" style="edgeStyle=none;html=1;entryX=0;entryY=0.5;entryDx=0;entryDy=0;" edge="1" parent="1" source="8vFuzAXdGaLlHIgOlRP7-4" target="8vFuzAXdGaLlHIgOlRP7-17">
                    <mxGeometry relative="1" as="geometry"/>
                </mxCell>
                <mxCell id="8vFuzAXdGaLlHIgOlRP7-4" value="Log error" style="rounded=1;whiteSpace=wrap;html=1;" parent="1" vertex="1">
                    <mxGeometry x="343" y="130" width="120" height="60" as="geometry"/>
                </mxCell>
                <mxCell id="13" style="edgeStyle=none;html=1;exitX=1;exitY=0.5;exitDx=0;exitDy=0;entryX=0;entryY=0.5;entryDx=0;entryDy=0;" edge="1" parent="1" source="8vFuzAXdGaLlHIgOlRP7-10" target="8vFuzAXdGaLlHIgOlRP7-19">
                    <mxGeometry relative="1" as="geometry"/>
                </mxCell>
                <mxCell id="8vFuzAXdGaLlHIgOlRP7-10" value="Publish error to errorMessage&lt;br&gt;pubsub" style="rounded=1;whiteSpace=wrap;html=1;" parent="1" vertex="1">
                    <mxGeometry x="678" y="180" width="120" height="60" as="geometry"/>
                </mxCell>
                <mxCell id="9" style="edgeStyle=none;html=1;entryX=0.5;entryY=0;entryDx=0;entryDy=0;" edge="1" parent="1" source="8vFuzAXdGaLlHIgOlRP7-17" target="8vFuzAXdGaLlHIgOlRP7-10">
                    <mxGeometry relative="1" as="geometry">
                        <Array as="points">
                            <mxPoint x="738" y="160"/>
                        </Array>
                    </mxGeometry>
                </mxCell>
                <mxCell id="12" value="Technical" style="edgeLabel;html=1;align=center;verticalAlign=middle;resizable=0;points=[];" vertex="1" connectable="0" parent="9">
                    <mxGeometry x="-0.6947" y="-1" relative="1" as="geometry">
                        <mxPoint x="11" y="-1" as="offset"/>
                    </mxGeometry>
                </mxCell>
                <mxCell id="10" style="edgeStyle=none;html=1;exitX=0.5;exitY=0;exitDx=0;exitDy=0;entryX=0;entryY=0.5;entryDx=0;entryDy=0;" edge="1" parent="1" source="8vFuzAXdGaLlHIgOlRP7-17" target="8vFuzAXdGaLlHIgOlRP7-25">
                    <mxGeometry relative="1" as="geometry">
                        <Array as="points">
                            <mxPoint x="548" y="100"/>
                        </Array>
                    </mxGeometry>
                </mxCell>
                <mxCell id="11" value="Business" style="edgeLabel;html=1;align=center;verticalAlign=middle;resizable=0;points=[];" vertex="1" connectable="0" parent="10">
                    <mxGeometry x="0.3125" relative="1" as="geometry">
                        <mxPoint as="offset"/>
                    </mxGeometry>
                </mxCell>
                <mxCell id="8vFuzAXdGaLlHIgOlRP7-17" value="Business &lt;br&gt;or &lt;br&gt;technical&lt;br&gt;error?" style="rhombus;whiteSpace=wrap;html=1;" parent="1" vertex="1">
                    <mxGeometry x="508" y="120" width="80" height="80" as="geometry"/>
                </mxCell>
                <mxCell id="14" style="edgeStyle=none;html=1;entryX=0;entryY=0.5;entryDx=0;entryDy=0;" edge="1" parent="1" source="8vFuzAXdGaLlHIgOlRP7-19" target="8vFuzAXdGaLlHIgOlRP7-24">
                    <mxGeometry relative="1" as="geometry"/>
                </mxCell>
                <mxCell id="8vFuzAXdGaLlHIgOlRP7-19" value="Return HTTP 500" style="rounded=1;whiteSpace=wrap;html=1;" parent="1" vertex="1">
                    <mxGeometry x="848" y="180" width="120" height="60" as="geometry"/>
                </mxCell>
                <mxCell id="16" style="edgeStyle=none;html=1;entryX=0.5;entryY=1;entryDx=0;entryDy=0;" edge="1" parent="1" source="8vFuzAXdGaLlHIgOlRP7-24" target="8vFuzAXdGaLlHIgOlRP7-32">
                    <mxGeometry relative="1" as="geometry"/>
                </mxCell>
                <mxCell id="8vFuzAXdGaLlHIgOlRP7-24" value="Send&lt;br&gt;shutdown signal" style="rounded=1;whiteSpace=wrap;html=1;" parent="1" vertex="1">
                    <mxGeometry x="1018" y="180" width="120" height="60" as="geometry"/>
                </mxCell>
                <mxCell id="15" style="edgeStyle=none;html=1;entryX=0;entryY=0.5;entryDx=0;entryDy=0;" edge="1" parent="1" source="8vFuzAXdGaLlHIgOlRP7-25" target="8vFuzAXdGaLlHIgOlRP7-32">
                    <mxGeometry relative="1" as="geometry"/>
                </mxCell>
                <mxCell id="8vFuzAXdGaLlHIgOlRP7-25" value="Repond HTTP 200" style="rounded=1;whiteSpace=wrap;html=1;" parent="1" vertex="1">
                    <mxGeometry x="678" y="70" width="120" height="60" as="geometry"/>
                </mxCell>
                <mxCell id="8vFuzAXdGaLlHIgOlRP7-32" value="End" style="ellipse;whiteSpace=wrap;html=1;" parent="1" vertex="1">
                    <mxGeometry x="1018" y="60" width="120" height="80" as="geometry"/>
                </mxCell>
            </root>
        </mxGraphModel>
    </diagram>
</mxfile>